<mxfile host="65bd71144e">
    <diagram id="6TgKZimT5i8SFP6nsdH2" name="Page-1">
        <mxGraphModel dx="2051" dy="1436" grid="1" gridSize="10" guides="1" tooltips="1" connect="1" arrows="1" fold="1" page="1" pageScale="1" pageWidth="1920" pageHeight="1200" math="0" shadow="0">
            <root>
                <mxCell id="0"/>
                <mxCell id="1" parent="0"/>
                <mxCell id="2" value="&lt;div style=&quot;font-size: 48px;&quot;&gt;&lt;span style=&quot;font-size: 48px;&quot;&gt;start&lt;/span&gt;&lt;/div&gt;&lt;div style=&quot;font-size: 48px;&quot;&gt;&lt;br style=&quot;font-size: 48px;&quot;&gt;&lt;/div&gt;&lt;div style=&quot;font-size: 48px;&quot;&gt;&lt;span style=&quot;font-size: 48px;&quot;&gt;input int year&lt;/span&gt;&lt;/div&gt;&lt;div style=&quot;font-size: 48px;&quot;&gt;&lt;br style=&quot;font-size: 48px;&quot;&gt;&lt;/div&gt;&lt;div style=&quot;font-size: 48px;&quot;&gt;&lt;span style=&quot;font-size: 48px;&quot;&gt;if year % 4 = 0&lt;/span&gt;&lt;/div&gt;&lt;div style=&quot;font-size: 48px;&quot;&gt;&lt;span style=&quot;font-size: 48px;&quot;&gt;&lt;span style=&quot;white-space: pre; font-size: 48px;&quot;&gt;&#9;&lt;/span&gt;output &quot;leap year&quot;&lt;/span&gt;&lt;/div&gt;&lt;div style=&quot;font-size: 48px;&quot;&gt;&lt;span style=&quot;font-size: 48px;&quot;&gt;else&lt;/span&gt;&lt;/div&gt;&lt;div style=&quot;font-size: 48px;&quot;&gt;&lt;span style=&quot;font-size: 48px;&quot;&gt;&lt;span style=&quot;white-space: pre; font-size: 48px;&quot;&gt;&#9;&lt;/span&gt;output &quot;no leap year&quot;&lt;br style=&quot;font-size: 48px;&quot;&gt;&lt;/span&gt;&lt;/div&gt;&lt;div style=&quot;font-size: 48px;&quot;&gt;&lt;span style=&quot;font-size: 48px;&quot;&gt;&lt;br style=&quot;font-size: 48px;&quot;&gt;&lt;/span&gt;&lt;/div&gt;&lt;div style=&quot;font-size: 48px;&quot;&gt;&lt;span style=&quot;font-size: 48px;&quot;&gt;exit&lt;/span&gt;&lt;/div&gt;&lt;div style=&quot;font-size: 48px;&quot;&gt;&lt;span style=&quot;font-size: 48px;&quot;&gt;&lt;br style=&quot;font-size: 48px;&quot;&gt;&lt;/span&gt;&lt;/div&gt;" style="text;html=1;strokeColor=none;fillColor=none;align=left;verticalAlign=middle;whiteSpace=wrap;rounded=0;fontSize=48;" parent="1" vertex="1">
                    <mxGeometry x="80" y="410" width="598.25" height="359.81" as="geometry"/>
                </mxCell>
                <mxCell id="32" value="Sum of two numbers solution" style="text;html=1;align=left;verticalAlign=middle;resizable=0;points=[];autosize=1;strokeColor=none;fillColor=none;fontSize=48;fontColor=#FFFFFF;labelBackgroundColor=default;" parent="1" vertex="1">
                    <mxGeometry x="80.00167394468707" y="50" width="630" height="60" as="geometry"/>
                </mxCell>
                <mxCell id="4" value="start" style="ellipse;whiteSpace=wrap;html=1;fillColor=#60a917;fontColor=#000000;strokeColor=none;fontSize=28;fontStyle=1;strokeWidth=0;sketch=0;shadow=0;" parent="1" vertex="1">
                    <mxGeometry x="984.917416628734" y="90" width="167.81105291607398" height="130.87284919700556" as="geometry"/>
                </mxCell>
                <mxCell id="5" value="input int year&amp;nbsp;" style="shape=parallelogram;perimeter=parallelogramPerimeter;whiteSpace=wrap;html=1;fixedSize=1;fillColor=#1ba1e2;fontColor=#000000;strokeColor=#006EAF;fontSize=28;fontStyle=1" parent="1" vertex="1">
                    <mxGeometry x="884.4468421052632" y="286.2976406533575" width="366.7026315789474" height="130.86509376890498" as="geometry"/>
                </mxCell>
                <mxCell id="6" value="" style="edgeStyle=none;html=1;" parent="1" source="4" target="5" edge="1">
                    <mxGeometry relative="1" as="geometry"/>
                </mxCell>
                <mxCell id="7" value="if year % 4 == 0&amp;nbsp;" style="rhombus;whiteSpace=wrap;html=1;fillColor=#fa6800;strokeColor=#C73500;fontColor=#000000;fontSize=28;fontStyle=1" parent="1" vertex="1">
                    <mxGeometry x="860" y="482.61854759101675" width="417.6630650355619" height="174.49713226267409" as="geometry"/>
                </mxCell>
                <mxCell id="8" value="" style="edgeStyle=none;html=1;" parent="1" source="5" target="7" edge="1">
                    <mxGeometry relative="1" as="geometry"/>
                </mxCell>
                <mxCell id="13" value="output &quot;leap year&quot;" style="shape=parallelogram;perimeter=parallelogramPerimeter;whiteSpace=wrap;html=1;fixedSize=1;size=19;fillColor=#1ba1e2;fontColor=#000000;strokeColor=#006EAF;fontSize=28;fontStyle=1" parent="1" vertex="1">
                    <mxGeometry x="884.4468421052632" y="806.211846229995" width="366.7026315789474" height="130.86509376890498" as="geometry"/>
                </mxCell>
                <mxCell id="16" value="Yes" style="edgeStyle=none;html=1;fontSize=48;endArrow=classic;endFill=1;" parent="1" source="7" target="13" edge="1">
                    <mxGeometry relative="1" as="geometry">
                        <mxPoint x="811.1063157894737" y="690.56096353737" as="targetPoint"/>
                        <Array as="points">
                            <mxPoint x="1067.798157894737" y="719.1591046581971"/>
                        </Array>
                    </mxGeometry>
                </mxCell>
                <mxCell id="17" value="output &quot;not a leap year&quot;" style="shape=parallelogram;perimeter=parallelogramPerimeter;whiteSpace=wrap;html=1;fixedSize=1;fillColor=#1ba1e2;fontColor=#000000;strokeColor=#006EAF;fontSize=28;fontStyle=1" parent="1" vertex="1">
                    <mxGeometry x="1469.5430468421055" y="504.44426112302693" width="399.4369531578947" height="130.86509376890498" as="geometry"/>
                </mxCell>
                <mxCell id="18" value="No" style="edgeStyle=none;html=1;fontSize=48;" parent="1" source="7" target="17" edge="1">
                    <mxGeometry relative="1" as="geometry">
                        <Array as="points">
                            <mxPoint x="1348.9368421052632" y="570.4487708298959"/>
                        </Array>
                    </mxGeometry>
                </mxCell>
                <mxCell id="21" value="End" style="ellipse;whiteSpace=wrap;html=1;fillColor=#e51400;fontColor=#000000;strokeColor=#B20000;fontSize=28;fontStyle=1" parent="1" vertex="1">
                    <mxGeometry x="971.8740352773826" y="1016.5768640292616" width="193.91499448079657" height="113.42313597073814" as="geometry"/>
                </mxCell>
                <mxCell id="22" value="" style="edgeStyle=none;html=1;" parent="1" source="13" target="21" edge="1">
                    <mxGeometry relative="1" as="geometry"/>
                </mxCell>
                <mxCell id="23" style="edgeStyle=none;html=1;entryX=1;entryY=0;entryDx=0;entryDy=0;" parent="1" source="17" target="21" edge="1">
                    <mxGeometry relative="1" as="geometry"/>
                </mxCell>
            </root>
        </mxGraphModel>
    </diagram>
</mxfile>